# WaveFront *.obj file (generated by Autodesk ATF)

mtllib Capstone Housing Box v1.mtl

g Body1

v 9.207500 0.317500 0.635000
v 8.878800 0.317500 0.678274
v 8.572500 0.317500 0.805148
v 8.309474 0.317500 1.006974
v 8.107648 0.317500 1.270000
v 7.980774 0.317500 1.576300
v 7.937500 0.317500 1.905000
v 7.980774 0.317500 2.233700
v 8.107648 0.317500 2.540000
v 8.309474 0.317500 2.803026
v 8.572500 0.317500 3.004852
v 8.878800 0.317500 3.131726
v 9.207500 0.317500 3.175000
v 9.536200 0.317500 3.131726
v 9.842500 0.317500 3.004852
v 10.105526 0.317500 2.803026
v 10.307352 0.317500 2.540000
v 10.434226 0.317500 2.233700
v 10.477500 0.317500 1.905000
v 10.434226 0.317500 1.576300
v 10.307352 0.317500 1.270000
v 10.105526 0.317500 1.006974
v 9.842500 0.317500 0.805148
v 9.536200 0.317500 0.678274
v 7.937500 0.000000 1.905000
v 7.980774 0.000000 1.576300
v 8.107648 0.000000 1.270000
v 8.309474 0.000000 1.006974
v 8.572500 0.000000 0.805148
v 8.878800 0.000000 0.678274
v 9.207500 0.000000 0.635000
v 9.536200 0.000000 0.678274
v 9.842500 0.000000 0.805148
v 10.105526 0.000000 1.006974
v 10.307352 0.000000 1.270000
v 10.434226 0.000000 1.576300
v 10.477500 0.000000 1.905000
v 10.434226 0.000000 2.233700
v 10.307352 0.000000 2.540000
v 10.105526 0.000000 2.803026
v 9.842500 0.000000 3.004852
v 9.536200 0.000000 3.131726
v 9.207500 0.000000 3.175000
v 8.878800 0.000000 3.131726
v 8.572500 0.000000 3.004852
v 8.309474 0.000000 2.803026
v 8.107648 0.000000 2.540000
v 7.980774 0.000000 2.233700
v 0.317500 0.317500 3.810000
v 9.207500 0.317500 3.810000
v 18.097500 0.317500 3.810000
v 18.097500 0.317500 0.635000
v 0.317500 0.317500 0.635000
v 0.317500 21.907500 3.810000
v 0.317500 11.112500 3.810000
v 0.317500 11.112500 0.635000
v 0.317500 21.907500 0.635000
v 18.097500 11.112500 3.810000
v 18.097500 21.907500 3.810000
v 18.097500 21.907500 0.635000
v 18.097500 11.112500 0.635000
v 9.207500 21.907500 3.810000
v 9.207500 21.907500 0.635000
v 9.207500 11.112500 0.635000
v 18.415000 22.225000 0.000000
v 9.207500 22.225000 0.000000
v -0.000000 22.225000 0.000000
v -0.000000 22.225000 3.810000
v 9.207500 22.225000 3.810000
v 18.415000 22.225000 3.810000
v 18.415000 0.000000 0.000000
v 18.415000 11.112500 0.000000
v 18.415000 11.112500 3.810000
v 18.415000 0.000000 3.810000
v 0.000000 0.000000 0.000000
v 9.207500 0.000000 0.000000
v 9.207500 0.000000 3.810000
v 0.000000 0.000000 3.810000
v -0.000000 11.112500 0.000000
v -0.000000 11.112500 3.810000
v 9.207500 11.112500 0.000000
vt 0.317500 2.327397 0.000000
vt -0.000000 2.327397 0.000000
vt 0.317500 1.994911 0.000000
vt -0.000000 1.994911 0.000000
vt 0.317500 1.662426 0.000000
vt -0.000000 1.662426 0.000000
vt 0.317500 1.329941 0.000000
vt -0.000000 1.329941 0.000000
vt 0.317500 0.997456 0.000000
vt -0.000000 0.997456 0.000000
vt 0.317500 0.664970 0.000000
vt -0.000000 0.664970 0.000000
vt 0.317500 0.332485 0.000000
vt -0.000000 0.332485 0.000000
vt 0.317500 0.000000 0.000000
vt -0.000000 0.000000 0.000000
vt 0.317500 -0.332485 0.000000
vt -0.000000 -0.332485 0.000000
vt 0.317500 -0.664970 0.000000
vt -0.000000 -0.664970 0.000000
vt 0.317500 -0.997456 0.000000
vt -0.000000 -0.997456 0.000000
vt 0.317500 -1.329941 0.000000
vt -0.000000 -1.329941 0.000000
vt 0.317500 -1.662426 0.000000
vt -0.000000 -1.662426 0.000000
vt 0.317500 -1.994911 0.000000
vt -0.000000 -1.994911 0.000000
vt 0.317500 -2.327397 0.000000
vt -0.000000 -2.327397 0.000000
vt 0.317500 -2.659882 0.000000
vt -0.000000 -2.659882 0.000000
vt 0.317500 -2.992367 0.000000
vt -0.000000 -2.992367 0.000000
vt 0.317500 -3.324852 0.000000
vt -0.000000 -3.324852 0.000000
vt 0.317500 -3.657337 0.000000
vt -0.000000 -3.657337 0.000000
vt 0.317500 -3.989823 0.000000
vt -0.000000 -3.989823 0.000000
vt 0.317500 3.989823 0.000000
vt -0.000000 3.989823 0.000000
vt 0.317500 3.657337 0.000000
vt -0.000000 3.657337 0.000000
vt 0.317500 3.324852 0.000000
vt -0.000000 3.324852 0.000000
vt 0.317500 2.992367 0.000000
vt -0.000000 2.992367 0.000000
vt 0.317500 2.659882 0.000000
vt -0.000000 2.659882 0.000000
vt -8.890000 0.000000 0.000000
vt -9.525000 0.805148 0.000000
vt -17.780000 0.000000 0.000000
vt -9.788026 1.006974 0.000000
vt -9.989852 1.270000 0.000000
vt -0.000000 0.000000 0.000000
vt -8.255000 0.805148 0.000000
vt -8.561300 0.678274 0.000000
vt -8.890000 0.635000 0.000000
vt -0.000000 3.175000 0.000000
vt -7.663274 1.576300 0.000000
vt -7.790148 1.270000 0.000000
vt -7.991974 1.006974 0.000000
vt -8.890000 3.175000 0.000000
vt -8.561300 3.131726 0.000000
vt -8.255000 3.004852 0.000000
vt -7.991974 2.803026 0.000000
vt -7.790148 2.540000 0.000000
vt -7.663274 2.233700 0.000000
vt -7.620000 1.905000 0.000000
vt -9.218700 0.678274 0.000000
vt -10.116726 1.576300 0.000000
vt -17.780000 3.175000 0.000000
vt -10.160000 1.905000 0.000000
vt -10.116726 2.233700 0.000000
vt -9.989852 2.540000 0.000000
vt -9.788026 2.803026 0.000000
vt -9.525000 3.004852 0.000000
vt -9.218700 3.131726 0.000000
vt -21.590000 0.000000 0.000000
vt -10.795000 0.000000 0.000000
vt -21.590000 3.175000 0.000000
vt -10.795000 3.175000 0.000000
vt -0.000000 0.000000 0.000000
vt -0.000000 3.175000 0.000000
vt -21.590000 0.000000 0.000000
vt -10.795000 0.000000 0.000000
vt -21.590000 3.175000 0.000000
vt -10.795000 3.175000 0.000000
vt -0.000000 0.000000 0.000000
vt -0.000000 3.175000 0.000000
vt -17.780000 0.000000 0.000000
vt -8.890000 0.000000 0.000000
vt -17.780000 3.175000 0.000000
vt -8.890000 3.175000 0.000000
vt -0.000000 0.000000 0.000000
vt -0.000000 3.175000 0.000000
vt 8.890000 10.795000 0.000000
vt -0.000000 10.795000 0.000000
vt 8.890000 0.000000 0.000000
vt 0.000000 0.000000 0.000000
vt 8.890000 -10.795000 0.000000
vt -0.000000 -10.795000 0.000000
vt -8.890000 0.000000 0.000000
vt -8.890000 -10.795000 0.000000
vt -8.890000 10.795000 0.000000
vt 0.000000 0.000000 0.000000
vt 9.207500 0.000000 0.000000
vt 0.000000 3.810000 0.000000
vt 9.207500 3.810000 0.000000
vt 18.415000 0.000000 0.000000
vt 18.415000 3.810000 0.000000
vt 0.000000 0.000000 0.000000
vt 11.112500 0.000000 0.000000
vt -0.000000 3.810000 0.000000
vt 11.112500 3.810000 0.000000
vt 22.225000 0.000000 0.000000
vt 22.225000 3.810000 0.000000
vt 7.980774 2.233700 0.000000
vt 0.000000 3.810000 0.000000
vt 7.937500 1.905000 0.000000
vt 0.000000 0.000000 0.000000
vt 7.980774 1.576300 0.000000
vt 8.107648 1.270000 0.000000
vt 8.309474 1.006974 0.000000
vt 8.572500 0.805148 0.000000
vt 9.207500 0.000000 0.000000
vt 8.878800 0.678274 0.000000
vt 9.207500 0.635000 0.000000
vt 9.536200 0.678274 0.000000
vt 9.842500 0.805148 0.000000
vt 18.415000 0.000000 0.000000
vt 10.105526 1.006974 0.000000
vt 10.307352 1.270000 0.000000
vt 10.434226 1.576300 0.000000
vt 10.477500 1.905000 0.000000
vt 18.415000 3.810000 0.000000
vt 10.434226 2.233700 0.000000
vt 10.307352 2.540000 0.000000
vt 10.105526 2.803026 0.000000
vt 9.842500 3.004852 0.000000
vt 9.207500 3.810000 0.000000
vt 9.536200 3.131726 0.000000
vt 9.207500 3.175000 0.000000
vt 8.878800 3.131726 0.000000
vt 8.572500 3.004852 0.000000
vt 8.309474 2.803026 0.000000
vt 8.107648 2.540000 0.000000
vt 0.000000 0.000000 0.000000
vt 11.112500 0.000000 0.000000
vt 0.000000 3.810000 0.000000
vt 11.112500 3.810000 0.000000
vt 22.225000 0.000000 0.000000
vt 22.225000 3.810000 0.000000
vt -8.890000 0.000000 0.000000
vt -9.207500 0.000000 0.000000
vt -8.890000 -10.795000 0.000000
vt -9.207500 -11.112500 0.000000
vt 0.000000 -11.112500 0.000000
vt -8.890000 10.795000 0.000000
vt -9.207500 11.112500 0.000000
vt 0.000000 11.112500 0.000000
vt 0.000000 10.795000 0.000000
vt 8.890000 10.795000 0.000000
vt 8.890000 0.000000 0.000000
vt 9.207500 0.000000 0.000000
vt 9.207500 11.112500 0.000000
vt 8.890000 -10.795000 0.000000
vt 9.207500 -11.112500 0.000000
vt 0.000000 -10.795000 0.000000
vt -0.000000 -11.112500 0.000000
vt 9.207500 -11.112500 0.000000
vt 0.000000 0.000000 0.000000
vt 9.207500 0.000000 0.000000
vt -0.000000 11.112500 0.000000
vt 9.207500 11.112500 0.000000
vt -9.207500 11.112500 0.000000
vt -9.207500 0.000000 0.000000
vt -9.207500 -11.112500 0.000000
vn 0.258819 -0.000000 0.965926
vn 0.258819 -0.000000 0.965926
vn -0.000000 0.000000 1.000000
vn -0.000000 0.000000 1.000000
vn -0.258819 0.000000 0.965926
vn -0.258819 0.000000 0.965926
vn -0.500000 0.000000 0.866025
vn -0.500000 0.000000 0.866025
vn -0.707107 0.000000 0.707107
vn -0.707107 0.000000 0.707107
vn -0.866025 0.000000 0.500000
vn -0.866025 0.000000 0.500000
vn -0.965926 0.000000 0.258819
vn -0.965926 0.000000 0.258819
vn -1.000000 0.000000 0.000000
vn -1.000000 0.000000 0.000000
vn -0.965926 0.000000 -0.258819
vn -0.965926 0.000000 -0.258819
vn -0.866025 0.000000 -0.500000
vn -0.866025 0.000000 -0.500000
vn -0.707107 0.000000 -0.707107
vn -0.707107 0.000000 -0.707107
vn -0.500000 0.000000 -0.866025
vn -0.500000 0.000000 -0.866025
vn -0.258819 0.000000 -0.965926
vn -0.258819 0.000000 -0.965926
vn -0.000000 0.000000 -1.000000
vn -0.000000 0.000000 -1.000000
vn 0.258819 0.000000 -0.965926
vn 0.258819 0.000000 -0.965926
vn 0.500000 0.000000 -0.866025
vn 0.500000 0.000000 -0.866025
vn 0.707107 0.000000 -0.707107
vn 0.707107 0.000000 -0.707107
vn 0.866025 0.000000 -0.500000
vn 0.866025 0.000000 -0.500000
vn 0.965926 0.000000 -0.258819
vn 0.965926 0.000000 -0.258819
vn 1.000000 0.000000 -0.000000
vn 1.000000 0.000000 -0.000000
vn 0.965926 -0.000000 0.258819
vn 0.965926 -0.000000 0.258819
vn 0.866025 -0.000000 0.500000
vn 0.866025 -0.000000 0.500000
vn 0.707107 -0.000000 0.707107
vn 0.707107 -0.000000 0.707107
vn 0.500000 -0.000000 0.866025
vn 0.500000 -0.000000 0.866025
vn 0.000000 1.000000 0.000000
vn 0.000000 1.000000 0.000000
vn 0.000000 1.000000 0.000000
vn 0.000000 1.000000 0.000000
vn 0.000000 1.000000 0.000000
vn 0.000000 1.000000 0.000000
vn 0.000000 1.000000 0.000000
vn 0.000000 1.000000 0.000000
vn 0.000000 1.000000 0.000000
vn 0.000000 1.000000 0.000000
vn 0.000000 1.000000 0.000000
vn 0.000000 1.000000 0.000000
vn 0.000000 1.000000 0.000000
vn 0.000000 1.000000 0.000000
vn 0.000000 1.000000 0.000000
vn 0.000000 1.000000 0.000000
vn 0.000000 1.000000 0.000000
vn 0.000000 1.000000 0.000000
vn 0.000000 1.000000 0.000000
vn 0.000000 1.000000 0.000000
vn 0.000000 1.000000 0.000000
vn 0.000000 1.000000 0.000000
vn 0.000000 1.000000 0.000000
vn 0.000000 1.000000 0.000000
vn 0.000000 1.000000 0.000000
vn 0.000000 1.000000 0.000000
vn 0.000000 1.000000 0.000000
vn 0.000000 1.000000 0.000000
vn 0.000000 1.000000 0.000000
vn 1.000000 -0.000000 -0.000000
vn 1.000000 -0.000000 -0.000000
vn 1.000000 -0.000000 -0.000000
vn 1.000000 -0.000000 -0.000000
vn 1.000000 -0.000000 -0.000000
vn 1.000000 -0.000000 -0.000000
vn -1.000000 -0.000000 -0.000000
vn -1.000000 -0.000000 -0.000000
vn -1.000000 -0.000000 -0.000000
vn -1.000000 -0.000000 -0.000000
vn -1.000000 -0.000000 -0.000000
vn -1.000000 -0.000000 -0.000000
vn 0.000000 -1.000000 -0.000000
vn 0.000000 -1.000000 -0.000000
vn 0.000000 -1.000000 -0.000000
vn 0.000000 -1.000000 -0.000000
vn 0.000000 -1.000000 -0.000000
vn 0.000000 -1.000000 -0.000000
vn -0.000000 -0.000000 1.000000
vn -0.000000 -0.000000 1.000000
vn -0.000000 -0.000000 1.000000
vn -0.000000 -0.000000 1.000000
vn -0.000000 -0.000000 1.000000
vn -0.000000 -0.000000 1.000000
vn -0.000000 -0.000000 1.000000
vn -0.000000 -0.000000 1.000000
vn 0.000000 1.000000 -0.000000
vn 0.000000 1.000000 -0.000000
vn 0.000000 1.000000 -0.000000
vn 0.000000 1.000000 -0.000000
vn 0.000000 1.000000 -0.000000
vn 0.000000 1.000000 -0.000000
vn 1.000000 0.000000 0.000000
vn 1.000000 0.000000 0.000000
vn 1.000000 0.000000 0.000000
vn 1.000000 0.000000 0.000000
vn 1.000000 0.000000 0.000000
vn 1.000000 0.000000 0.000000
vn 0.000000 -1.000000 0.000000
vn 0.000000 -1.000000 0.000000
vn 0.000000 -1.000000 0.000000
vn 0.000000 -1.000000 0.000000
vn 0.000000 -1.000000 0.000000
vn 0.000000 -1.000000 0.000000
vn 0.000000 -1.000000 0.000000
vn 0.000000 -1.000000 0.000000
vn 0.000000 -1.000000 0.000000
vn 0.000000 -1.000000 0.000000
vn 0.000000 -1.000000 0.000000
vn 0.000000 -1.000000 0.000000
vn 0.000000 -1.000000 0.000000
vn 0.000000 -1.000000 0.000000
vn 0.000000 -1.000000 0.000000
vn 0.000000 -1.000000 0.000000
vn 0.000000 -1.000000 0.000000
vn 0.000000 -1.000000 0.000000
vn 0.000000 -1.000000 0.000000
vn 0.000000 -1.000000 0.000000
vn 0.000000 -1.000000 0.000000
vn 0.000000 -1.000000 0.000000
vn 0.000000 -1.000000 0.000000
vn 0.000000 -1.000000 0.000000
vn 0.000000 -1.000000 0.000000
vn 0.000000 -1.000000 0.000000
vn 0.000000 -1.000000 0.000000
vn 0.000000 -1.000000 0.000000
vn 0.000000 -1.000000 0.000000
vn 0.000000 -1.000000 0.000000
vn -1.000000 -0.000000 0.000000
vn -1.000000 -0.000000 0.000000
vn -1.000000 -0.000000 0.000000
vn -1.000000 -0.000000 0.000000
vn -1.000000 -0.000000 0.000000
vn -1.000000 -0.000000 0.000000
vn 0.000000 0.000000 1.000000
vn 0.000000 0.000000 1.000000
vn 0.000000 0.000000 1.000000
vn 0.000000 0.000000 1.000000
vn 0.000000 0.000000 1.000000
vn 0.000000 0.000000 1.000000
vn 0.000000 0.000000 1.000000
vn 0.000000 0.000000 1.000000
vn 0.000000 0.000000 1.000000
vn 0.000000 0.000000 1.000000
vn 0.000000 0.000000 1.000000
vn 0.000000 0.000000 1.000000
vn 0.000000 0.000000 1.000000
vn 0.000000 0.000000 1.000000
vn 0.000000 0.000000 1.000000
vn 0.000000 0.000000 1.000000
vn -0.000000 -0.000000 -1.000000
vn -0.000000 -0.000000 -1.000000
vn -0.000000 -0.000000 -1.000000
vn -0.000000 -0.000000 -1.000000
vn -0.000000 -0.000000 -1.000000
vn -0.000000 -0.000000 -1.000000
vn -0.000000 -0.000000 -1.000000
vn -0.000000 -0.000000 -1.000000
vn -0.000000 -0.000000 -1.000000
usemtl Steel_-_Satin
f 2/1/1 30/2/2 1/3/3
f 1/3/3 30/2/2 31/4/4
f 1/3/3 31/4/4 24/5/5
f 24/5/5 31/4/4 32/6/6
f 24/5/5 32/6/6 23/7/7
f 23/7/7 32/6/6 33/8/8
f 23/7/7 33/8/8 22/9/9
f 22/9/9 33/8/8 34/10/10
f 22/9/9 34/10/10 21/11/11
f 21/11/11 34/10/10 35/12/12
f 21/11/11 35/12/12 20/13/13
f 20/13/13 35/12/12 36/14/14
f 20/13/13 36/14/14 19/15/15
f 19/15/15 36/14/14 37/16/16
f 19/15/15 37/16/16 18/17/17
f 18/17/17 37/16/16 38/18/18
f 18/17/17 38/18/18 17/19/19
f 17/19/19 38/18/18 39/20/20
f 17/19/19 39/20/20 16/21/21
f 16/21/21 39/20/20 40/22/22
f 16/21/21 40/22/22 15/23/23
f 15/23/23 40/22/22 41/24/24
f 15/23/23 41/24/24 14/25/25
f 14/25/25 41/24/24 42/26/26
f 14/25/25 42/26/26 13/27/27
f 13/27/27 42/26/26 43/28/28
f 13/27/27 43/28/28 12/29/29
f 12/29/29 43/28/28 44/30/30
f 12/29/29 44/30/30 11/31/31
f 11/31/31 44/30/30 45/32/32
f 11/31/31 45/32/32 10/33/33
f 10/33/33 45/32/32 46/34/34
f 10/33/33 46/34/34 9/35/35
f 9/35/35 46/34/34 47/36/36
f 9/35/35 47/36/36 8/37/37
f 8/37/37 47/36/36 48/38/38
f 8/37/37 48/38/38 7/39/39
f 7/39/39 48/38/38 25/40/40
f 7/41/39 25/42/40 6/43/41
f 6/43/41 25/42/40 26/44/42
f 6/43/41 26/44/42 5/45/43
f 5/45/43 26/44/42 27/46/44
f 5/45/43 27/46/44 4/47/45
f 4/47/45 27/46/44 28/48/46
f 4/47/45 28/48/46 3/49/47
f 3/49/47 28/48/46 29/50/48
f 3/49/47 29/50/48 2/1/1
f 2/1/1 29/50/48 30/2/2
f 50/51/49 11/52/50 49/53/51
f 49/53/51 11/52/50 10/54/52
f 49/53/51 10/54/52 9/55/53
f 51/56/54 15/57/55 50/51/49
f 50/51/49 15/57/55 14/58/56
f 50/51/49 14/58/56 13/59/57
f 52/60/58 18/61/59 51/56/54
f 51/56/54 18/61/59 17/62/60
f 51/56/54 17/62/60 16/63/61
f 1/64/62 24/65/63 52/60/58
f 52/60/58 24/65/63 23/66/64
f 52/60/58 23/66/64 22/67/65
f 22/67/65 21/68/66 52/60/58
f 52/60/58 21/68/66 20/69/67
f 52/60/58 20/69/67 19/70/68
f 19/70/68 18/61/59 52/60/58
f 16/63/61 15/57/55 51/56/54
f 13/59/57 12/71/69 50/51/49
f 50/51/49 12/71/69 11/52/50
f 9/55/53 8/72/70 49/53/51
f 49/53/51 8/72/70 53/73/71
f 53/73/71 8/72/70 7/74/72
f 53/73/71 7/74/72 6/75/73
f 6/75/73 5/76/74 53/73/71
f 53/73/71 5/76/74 4/77/75
f 53/73/71 4/77/75 3/78/76
f 3/78/76 2/79/77 53/73/71
f 53/73/71 2/79/77 1/64/62
f 54/80/78 55/81/79 57/82/80
f 57/82/80 55/81/79 56/83/81
f 56/83/81 55/81/79 49/84/82
f 56/83/81 49/84/82 53/85/83
f 51/86/84 58/87/85 52/88/86
f 52/88/86 58/87/85 61/89/87
f 61/89/87 58/87/85 59/90/88
f 61/89/87 59/90/88 60/91/89
f 59/92/90 62/93/91 60/94/92
f 60/94/92 62/93/91 63/95/93
f 63/95/93 62/93/91 54/96/94
f 63/95/93 54/96/94 57/97/95
f 60/98/96 63/99/97 61/100/98
f 61/100/98 63/99/97 64/101/99
f 61/100/98 64/101/99 52/102/100
f 52/102/100 64/101/99 1/103/3
f 1/103/3 64/101/99 56/104/101
f 1/103/3 56/104/101 53/105/102
f 63/99/97 57/106/103 64/101/99
f 64/101/99 57/106/103 56/104/101
f 65/107/104 66/108/105 70/109/106
f 70/109/106 66/108/105 69/110/107
f 69/110/107 66/108/105 67/111/108
f 69/110/107 67/111/108 68/112/109
f 71/113/110 72/114/111 74/115/112
f 74/115/112 72/114/111 73/116/113
f 73/116/113 72/114/111 65/117/114
f 73/116/113 65/117/114 70/118/115
f 48/119/116 78/120/117 25/121/118
f 25/121/118 78/120/117 75/122/119
f 25/121/118 75/122/119 26/123/120
f 26/123/120 75/122/119 27/124/121
f 27/124/121 75/122/119 28/125/122
f 28/125/122 75/122/119 29/126/123
f 29/126/123 75/122/119 76/127/124
f 29/126/123 76/127/124 30/128/125
f 30/128/125 76/127/124 31/129/126
f 31/129/126 76/127/124 32/130/127
f 32/130/127 76/127/124 33/131/128
f 33/131/128 76/127/124 71/132/129
f 33/131/128 71/132/129 34/133/130
f 34/133/130 71/132/129 35/134/131
f 35/134/131 71/132/129 36/135/132
f 36/135/132 71/132/129 37/136/133
f 37/136/133 71/132/129 74/137/134
f 37/136/133 74/137/134 38/138/135
f 38/138/135 74/137/134 39/139/136
f 39/139/136 74/137/134 40/140/137
f 40/140/137 74/137/134 41/141/138
f 41/141/138 74/137/134 77/142/139
f 41/141/138 77/142/139 42/143/140
f 42/143/140 77/142/139 43/144/141
f 43/144/141 77/142/139 44/145/142
f 44/145/142 77/142/139 45/146/143
f 45/146/143 77/142/139 78/120/117
f 45/146/143 78/120/117 46/147/144
f 46/147/144 78/120/117 47/148/145
f 47/148/145 78/120/117 48/119/116
f 67/149/146 79/150/147 68/151/148
f 68/151/148 79/150/147 80/152/149
f 80/152/149 79/150/147 75/153/150
f 80/152/149 75/153/150 78/154/151
f 55/155/152 80/156/153 49/157/154
f 49/157/154 80/156/153 78/158/155
f 49/157/154 78/158/155 77/159/156
f 55/155/152 54/160/157 80/156/153
f 80/156/153 54/160/157 68/161/158
f 68/161/158 54/160/157 69/162/159
f 69/162/159 54/160/157 62/163/160
f 69/162/159 62/163/160 59/164/161
f 58/165/162 73/166/163 59/164/161
f 59/164/161 73/166/163 70/167/164
f 59/164/161 70/167/164 69/162/159
f 58/165/162 51/168/165 73/166/163
f 73/166/163 51/168/165 74/169/166
f 74/169/166 51/168/165 77/159/156
f 77/159/156 51/168/165 50/170/167
f 77/159/156 50/170/167 49/157/154
f 76/171/168 75/172/169 81/173/170
f 81/173/170 75/172/169 79/174/171
f 81/173/170 79/174/171 66/175/172
f 66/175/172 79/174/171 67/176/173
f 66/175/172 65/177/174 81/173/170
f 81/173/170 65/177/174 72/178/175
f 81/173/170 72/178/175 76/171/168
f 76/171/168 72/178/175 71/179/176
# 81 vertices
# 179 texture params
# 176 normals
# 162 facets

# 1 groups
