# WaveFront *.obj file (generated by Autodesk ATF)

mtllib Capstone Housing Lid SCALED v1.mtl

g Body1

v 7.759700 20.447000 0.000000
v 8.902700 20.447000 0.000000
v 8.902700 20.447000 1.143000
v 7.759700 20.447000 1.143000
v 7.759700 16.002000 0.000000
v 7.759700 16.002000 1.143000
v 7.759700 16.002000 0.254000
v 8.902700 16.002000 0.254000
v 8.902700 16.002000 0.000000
v 8.902700 16.002000 1.143000
v 12.230100 16.002000 0.254000
v 12.230100 16.002000 1.270000
v 5.880100 16.002000 1.270000
v 5.880100 16.002000 0.254000
v 5.880100 5.842000 1.270000
v 5.880100 5.842000 0.254000
v 12.230100 5.842000 1.270000
v 12.230100 5.842000 0.254000
v 17.792700 21.526500 0.000000
v 9.055100 21.526500 0.000000
v 0.317500 21.526500 0.000000
v 0.317500 21.526500 0.635000
v 9.055100 21.526500 0.635000
v 17.792700 21.526500 0.635000
v 0.317500 10.922000 0.000000
v 0.317500 0.317500 0.000000
v 0.317500 0.317500 0.635000
v 0.317500 10.922000 0.635000
v 9.055100 0.317500 0.000000
v 17.792700 0.317500 0.000000
v 17.792700 0.317500 0.635000
v 9.055100 0.317500 0.635000
v 17.792700 10.922000 0.000000
v 17.792700 10.922000 0.635000
v 18.110200 0.000000 0.635000
v 9.055100 0.000000 0.635000
v 0.000000 0.000000 0.635000
v 0.000000 10.922000 0.635000
v 0.000000 21.844000 0.635000
v 9.055100 21.844000 0.635000
v 18.110200 21.844000 0.635000
v 18.110200 10.922000 0.635000
v 0.000000 0.000000 1.270000
v 0.000000 10.922000 1.270000
v 0.000000 21.844000 1.270000
v 18.110200 0.000000 1.270000
v 9.055100 0.000000 1.270000
v 9.055100 21.844000 1.270000
v 18.110200 21.844000 1.270000
v 18.110200 10.922000 1.270000
v 9.055100 10.922000 0.000000
vt -0.000000 1.143000 0.000000
vt -1.143000 1.143000 0.000000
vt -0.000000 0.000000 0.000000
vt -1.143000 0.000000 0.000000
vt -0.000000 1.143000 0.000000
vt -4.445000 1.143000 0.000000
vt -0.000000 0.889000 0.000000
vt -4.445000 0.000000 0.000000
vt -0.000000 0.000000 0.000000
vt -1.143000 0.889000 0.000000
vt -0.000000 0.889000 0.000000
vt -1.143000 1.143000 0.000000
vt -0.000000 1.143000 0.000000
vt -4.445000 1.143000 0.000000
vt -4.445000 0.889000 0.000000
vt -0.000000 1.143000 0.000000
vt 0.000000 0.000000 0.000000
vt -4.445000 0.000000 0.000000
vt -0.571500 -2.222500 0.000000
vt 0.571500 -2.222500 0.000000
vt -0.571500 2.222500 0.000000
vt 0.571500 2.222500 0.000000
vt -1.879600 1.016000 0.000000
vt -1.879600 0.127000 0.000000
vt -0.000000 1.016000 0.000000
vt -0.000000 0.000000 0.000000
vt -3.022600 0.127000 0.000000
vt -6.350000 0.000000 0.000000
vt -6.350000 1.016000 0.000000
vt -3.022600 1.016000 0.000000
vt -10.160000 0.000000 0.000000
vt -0.000000 0.000000 0.000000
vt -10.160000 1.016000 0.000000
vt -0.000000 1.016000 0.000000
vt -6.350000 0.000000 0.000000
vt -0.000000 0.000000 0.000000
vt -6.350000 1.016000 0.000000
vt -0.000000 1.016000 0.000000
vt -10.160000 0.000000 0.000000
vt -0.000000 0.000000 0.000000
vt -10.160000 1.016000 0.000000
vt -0.000000 1.016000 0.000000
vt -3.175000 5.080000 0.000000
vt -3.175000 -5.080000 0.000000
vt -1.295400 5.080000 0.000000
vt -0.152400 5.080000 0.000000
vt 3.175000 -5.080000 0.000000
vt 3.175000 5.080000 0.000000
vt -17.475200 0.000000 0.000000
vt -8.737600 0.000000 0.000000
vt -17.475200 0.635000 0.000000
vt -8.737600 0.635000 0.000000
vt -0.000000 0.000000 0.000000
vt -0.000000 0.635000 0.000000
vt -21.209000 0.000000 0.000000
vt -10.604500 0.000000 0.000000
vt -21.209000 0.635000 0.000000
vt -10.604500 0.635000 0.000000
vt -0.000000 0.000000 0.000000
vt -0.000000 0.635000 0.000000
vt -17.475200 0.000000 0.000000
vt -8.737600 0.000000 0.000000
vt -17.475200 0.635000 0.000000
vt -8.737600 0.635000 0.000000
vt 0.000000 0.000000 0.000000
vt 0.000000 0.635000 0.000000
vt -21.209000 0.000000 0.000000
vt -10.604500 0.000000 0.000000
vt -21.209000 0.635000 0.000000
vt -10.604500 0.635000 0.000000
vt -0.000000 0.000000 0.000000
vt -0.000000 0.635000 0.000000
vt -8.737600 0.000000 0.000000
vt -9.055100 0.000000 0.000000
vt -8.737600 -10.604500 0.000000
vt -9.055100 -10.922000 0.000000
vt -0.000000 -10.922000 0.000000
vt -8.737600 10.604500 0.000000
vt -9.055100 10.922000 0.000000
vt -0.000000 10.922000 0.000000
vt -0.000000 10.604500 0.000000
vt 8.737600 10.604500 0.000000
vt 8.737600 0.000000 0.000000
vt 9.055100 0.000000 0.000000
vt 9.055100 10.922000 0.000000
vt 8.737600 -10.604500 0.000000
vt 9.055100 -10.922000 0.000000
vt -0.000000 -10.604500 0.000000
vt 0.000000 0.635000 0.000000
vt 10.922000 0.635000 0.000000
vt 0.000000 1.270000 0.000000
vt 10.922000 1.270000 0.000000
vt 21.844000 0.635000 0.000000
vt 21.844000 1.270000 0.000000
vt 0.000000 0.635000 0.000000
vt 9.055100 0.635000 0.000000
vt 0.000000 1.270000 0.000000
vt 9.055100 1.270000 0.000000
vt 18.110200 0.635000 0.000000
vt 18.110200 1.270000 0.000000
vt 0.000000 0.635000 0.000000
vt 9.055100 0.635000 0.000000
vt 0.000000 1.270000 0.000000
vt 9.055100 1.270000 0.000000
vt 18.110200 0.635000 0.000000
vt 18.110200 1.270000 0.000000
vt 0.000000 0.635000 0.000000
vt 10.922000 0.635000 0.000000
vt 0.000000 1.270000 0.000000
vt 10.922000 1.270000 0.000000
vt 21.844000 0.635000 0.000000
vt 21.844000 1.270000 0.000000
vt -3.175000 5.080000 0.000000
vt -9.055100 0.000000 0.000000
vt -3.175000 -5.080000 0.000000
vt -9.055100 -10.922000 0.000000
vt 0.000000 -10.922000 0.000000
vt 3.175000 5.080000 0.000000
vt 0.000000 10.922000 0.000000
vt -9.055100 10.922000 0.000000
vt 3.175000 -5.080000 0.000000
vt 9.055100 0.000000 0.000000
vt 9.055100 10.922000 0.000000
vt 9.055100 -10.922000 0.000000
vt 0.152400 5.080000 0.000000
vt 0.000000 0.000000 0.000000
vt 1.295400 5.080000 0.000000
vt 8.737600 0.000000 0.000000
vt 8.737600 10.604500 0.000000
vt -0.000000 10.604500 0.000000
vt 0.152400 9.525000 0.000000
vt 1.295400 9.525000 0.000000
vt -8.737600 10.604500 0.000000
vt -8.737600 0.000000 0.000000
vt -0.000000 -10.604500 0.000000
vt -8.737600 -10.604500 0.000000
vt 8.737600 -10.604500 0.000000
vn -0.000000 -1.000000 -0.000000
vn -0.000000 -1.000000 -0.000000
vn -0.000000 -1.000000 -0.000000
vn -0.000000 -1.000000 -0.000000
vn 1.000000 0.000000 0.000000
vn 1.000000 0.000000 0.000000
vn 1.000000 0.000000 0.000000
vn 1.000000 0.000000 0.000000
vn 1.000000 0.000000 0.000000
vn -0.000000 1.000000 -0.000000
vn -0.000000 1.000000 -0.000000
vn -0.000000 1.000000 -0.000000
vn -0.000000 1.000000 -0.000000
vn -1.000000 0.000000 -0.000000
vn -1.000000 0.000000 -0.000000
vn -1.000000 0.000000 -0.000000
vn -1.000000 0.000000 -0.000000
vn -1.000000 0.000000 -0.000000
vn -0.000000 -0.000000 -1.000000
vn -0.000000 -0.000000 -1.000000
vn -0.000000 -0.000000 -1.000000
vn -0.000000 -0.000000 -1.000000
vn 0.000000 -1.000000 -0.000000
vn 0.000000 -1.000000 -0.000000
vn 0.000000 -1.000000 -0.000000
vn 0.000000 -1.000000 -0.000000
vn 0.000000 -1.000000 -0.000000
vn 0.000000 -1.000000 -0.000000
vn 0.000000 -1.000000 -0.000000
vn 0.000000 -1.000000 -0.000000
vn 1.000000 -0.000000 -0.000000
vn 1.000000 -0.000000 -0.000000
vn 1.000000 -0.000000 -0.000000
vn 1.000000 -0.000000 -0.000000
vn 0.000000 1.000000 0.000000
vn 0.000000 1.000000 0.000000
vn 0.000000 1.000000 0.000000
vn 0.000000 1.000000 0.000000
vn -1.000000 -0.000000 -0.000000
vn -1.000000 -0.000000 -0.000000
vn -1.000000 -0.000000 -0.000000
vn -1.000000 -0.000000 -0.000000
vn -0.000000 -0.000000 1.000000
vn -0.000000 -0.000000 1.000000
vn -0.000000 -0.000000 1.000000
vn -0.000000 -0.000000 1.000000
vn -0.000000 -0.000000 1.000000
vn -0.000000 -0.000000 1.000000
vn -0.000000 1.000000 -0.000000
vn -0.000000 1.000000 -0.000000
vn -0.000000 1.000000 -0.000000
vn -0.000000 1.000000 -0.000000
vn -0.000000 1.000000 -0.000000
vn -0.000000 1.000000 -0.000000
vn -1.000000 -0.000000 0.000000
vn -1.000000 -0.000000 0.000000
vn -1.000000 -0.000000 0.000000
vn -1.000000 -0.000000 0.000000
vn -1.000000 -0.000000 0.000000
vn -1.000000 -0.000000 0.000000
vn -0.000000 -1.000000 -0.000000
vn -0.000000 -1.000000 -0.000000
vn -0.000000 -1.000000 -0.000000
vn -0.000000 -1.000000 -0.000000
vn -0.000000 -1.000000 -0.000000
vn -0.000000 -1.000000 -0.000000
vn 1.000000 0.000000 -0.000000
vn 1.000000 0.000000 -0.000000
vn 1.000000 0.000000 -0.000000
vn 1.000000 0.000000 -0.000000
vn 1.000000 0.000000 -0.000000
vn 1.000000 0.000000 -0.000000
vn -0.000000 -0.000000 -1.000000
vn -0.000000 -0.000000 -1.000000
vn -0.000000 -0.000000 -1.000000
vn -0.000000 -0.000000 -1.000000
vn -0.000000 -0.000000 -1.000000
vn -0.000000 -0.000000 -1.000000
vn -0.000000 -0.000000 -1.000000
vn -0.000000 -0.000000 -1.000000
vn -0.000000 -0.000000 -1.000000
vn -0.000000 -0.000000 -1.000000
vn -0.000000 -0.000000 -1.000000
vn -0.000000 -0.000000 -1.000000
vn -0.000000 -0.000000 -1.000000
vn -0.000000 -0.000000 -1.000000
vn -0.000000 -0.000000 -1.000000
vn -0.000000 -0.000000 -1.000000
vn -1.000000 0.000000 0.000000
vn -1.000000 0.000000 0.000000
vn -1.000000 0.000000 0.000000
vn -1.000000 0.000000 0.000000
vn -1.000000 0.000000 0.000000
vn -1.000000 0.000000 0.000000
vn 0.000000 -1.000000 0.000000
vn 0.000000 -1.000000 0.000000
vn 0.000000 -1.000000 0.000000
vn 0.000000 -1.000000 0.000000
vn 0.000000 -1.000000 0.000000
vn 0.000000 -1.000000 0.000000
vn 0.000000 1.000000 -0.000000
vn 0.000000 1.000000 -0.000000
vn 0.000000 1.000000 -0.000000
vn 0.000000 1.000000 -0.000000
vn 0.000000 1.000000 -0.000000
vn 0.000000 1.000000 -0.000000
vn 1.000000 0.000000 0.000000
vn 1.000000 0.000000 0.000000
vn 1.000000 0.000000 0.000000
vn 1.000000 0.000000 0.000000
vn 1.000000 0.000000 0.000000
vn 1.000000 0.000000 0.000000
vn 0.000000 0.000000 1.000000
vn 0.000000 0.000000 1.000000
vn 0.000000 0.000000 1.000000
vn 0.000000 0.000000 1.000000
vn 0.000000 0.000000 1.000000
vn 0.000000 0.000000 1.000000
vn 0.000000 0.000000 1.000000
vn 0.000000 0.000000 1.000000
vn 0.000000 0.000000 1.000000
vn 0.000000 0.000000 1.000000
vn 0.000000 0.000000 1.000000
vn 0.000000 0.000000 1.000000
vn -0.000000 -0.000000 -1.000000
vn -0.000000 -0.000000 -1.000000
vn -0.000000 -0.000000 -1.000000
vn -0.000000 -0.000000 -1.000000
vn -0.000000 -0.000000 -1.000000
vn -0.000000 -0.000000 -1.000000
vn -0.000000 -0.000000 -1.000000
vn -0.000000 -0.000000 -1.000000
vn -0.000000 -0.000000 -1.000000
vn -0.000000 -0.000000 -1.000000
vn -0.000000 -0.000000 -1.000000
vn -0.000000 -0.000000 -1.000000
vn -0.000000 -0.000000 -1.000000
usemtl Steel_-_Satin
f 1/1/1 2/2/2 4/3/3
f 4/3/3 2/2/2 3/4/4
f 5/5/5 1/6/6 7/7/7
f 7/7/7 1/6/6 4/8/8
f 7/7/7 4/8/8 6/9/9
f 7/10/10 8/11/11 5/12/12
f 5/12/12 8/11/11 9/13/13
f 9/14/14 8/15/15 2/16/16
f 2/16/16 8/15/15 3/17/17
f 3/17/17 8/15/15 10/18/18
f 4/19/19 3/20/20 6/21/21
f 6/21/21 3/20/20 10/22/22
f 7/23/23 6/24/24 14/25/25
f 14/25/25 6/24/24 13/26/26
f 13/26/26 6/24/24 10/27/27
f 13/26/26 10/27/27 12/28/28
f 12/28/28 10/27/27 11/29/29
f 11/29/29 10/27/27 8/30/30
f 13/31/31 15/32/32 14/33/33
f 14/33/33 15/32/32 16/34/34
f 15/35/35 17/36/36 16/37/37
f 16/37/37 17/36/36 18/38/38
f 17/39/39 12/40/40 18/41/41
f 18/41/41 12/40/40 11/42/42
f 14/43/43 16/44/44 7/45/45
f 7/45/45 16/44/44 8/46/46
f 8/46/46 16/44/44 18/47/47
f 8/46/46 18/47/47 11/48/48
f 19/49/49 20/50/50 24/51/51
f 24/51/51 20/50/50 23/52/52
f 23/52/52 20/50/50 21/53/53
f 23/52/52 21/53/53 22/54/54
f 21/55/55 25/56/56 22/57/57
f 22/57/57 25/56/56 28/58/58
f 28/58/58 25/56/56 26/59/59
f 28/58/58 26/59/59 27/60/60
f 26/61/61 29/62/62 27/63/63
f 27/63/63 29/62/62 32/64/64
f 32/64/64 29/62/62 30/65/65
f 32/64/64 30/65/65 31/66/66
f 30/67/67 33/68/68 31/69/69
f 31/69/69 33/68/68 34/70/70
f 34/70/70 33/68/68 19/71/71
f 34/70/70 19/71/71 24/72/72
f 34/73/73 42/74/74 31/75/75
f 31/75/75 42/74/74 35/76/76
f 31/75/75 35/76/76 36/77/77
f 34/73/73 24/78/78 42/74/74
f 42/74/74 24/78/78 41/79/79
f 41/79/79 24/78/78 40/80/80
f 40/80/80 24/78/78 23/81/81
f 40/80/80 23/81/81 22/82/82
f 28/83/83 38/84/84 22/82/82
f 22/82/82 38/84/84 39/85/85
f 22/82/82 39/85/85 40/80/80
f 28/83/83 27/86/86 38/84/84
f 38/84/84 27/86/86 37/87/87
f 37/87/87 27/86/86 36/77/77
f 36/77/77 27/86/86 32/88/88
f 36/77/77 32/88/88 31/75/75
f 39/89/89 38/90/90 45/91/91
f 45/91/91 38/90/90 44/92/92
f 44/92/92 38/90/90 37/93/93
f 44/92/92 37/93/93 43/94/94
f 37/95/95 36/96/96 43/97/97
f 43/97/97 36/96/96 47/98/98
f 47/98/98 36/96/96 35/99/99
f 47/98/98 35/99/99 46/100/100
f 41/101/101 40/102/102 49/103/103
f 49/103/103 40/102/102 48/104/104
f 48/104/104 40/102/102 39/105/105
f 48/104/104 39/105/105 45/106/106
f 35/107/107 42/108/108 46/109/109
f 46/109/109 42/108/108 50/110/110
f 50/110/110 42/108/108 41/111/111
f 50/110/110 41/111/111 49/112/112
f 13/113/113 44/114/114 15/115/115
f 15/115/115 44/114/114 43/116/116
f 15/115/115 43/116/116 47/117/117
f 12/118/118 48/119/119 13/113/113
f 13/113/113 48/119/119 45/120/120
f 13/113/113 45/120/120 44/114/114
f 17/121/121 50/122/122 12/118/118
f 12/118/118 50/122/122 49/123/123
f 12/118/118 49/123/123 48/119/119
f 15/115/115 47/117/117 17/121/121
f 17/121/121 47/117/117 46/124/124
f 17/121/121 46/124/124 50/122/122
f 9/125/125 51/126/126 5/127/127
f 5/127/127 51/126/126 25/128/128
f 5/127/127 25/128/128 21/129/129
f 51/126/126 9/125/125 20/130/130
f 20/130/130 9/125/125 2/131/131
f 20/130/130 2/131/131 1/132/132
f 20/130/130 1/132/132 21/129/129
f 21/129/129 1/132/132 5/127/127
f 20/130/130 19/133/133 51/126/126
f 51/126/126 19/133/133 33/134/134
f 51/126/126 33/134/134 29/135/135
f 29/135/135 33/134/134 30/136/136
f 29/135/135 26/137/137 51/126/126
f 51/126/126 26/137/137 25/128/128
# 51 vertices
# 137 texture params
# 137 normals
# 102 facets

# 1 groups
